<?xml version="1.0" encoding="UTF-8" standalone="no"?>
<svg style="enable-background:new 0 0 360 55" xmlns="http://www.w3.org/2000/svg" xml:space="preserve" version="1.1" y="0px" x="0px" xmlns:xlink="http://www.w3.org/1999/xlink" viewBox="0 0 360 55">
<style type="text/css">.st0{fill:#ED7518;}.st1{fill:#FFFFFF;}</style>
<g class="st0">
<path d="m51.9 45.1c0 3.7-3 6.8-6.8 6.8h-38.3c-3.8 0-6.8-3-6.8-6.8v-38.3c0-3.8 3-6.8 6.8-6.8h38.3c3.8 0 6.8 3 6.8 6.8v38.3z"/>
<path d="m71.8 10.9v14.3h1l10.2-14.3h7.4l-12.2 15.1c4.9 0.9 6.9 4.1 8.4 8.3 1.2 3.5 2.3 6.9 3.8 10h-6.5c-1.1-2.3-1.9-5-2.8-7.6-1.3-4.1-3.1-7-7.9-7h-1.4v14.5h-6v-33.3h6z"/>
<path d="m113.2 38.5c0 2.2 0.1 4.3 0.4 5.8h-5.6l-0.4-2.7h-0.1c-1.5 1.9-4 3.2-7.1 3.2-4.9 0-7.6-3.5-7.6-7.2 0-6.1 5.4-9.2 14.3-9.1v-0.4c0-1.6-0.6-4.2-4.9-4.2-2.4 0-4.8 0.7-6.5 1.8l-1.2-4c1.8-1.1 4.9-2.1 8.7-2.1 7.7 0 9.9 4.9 9.9 10.1v8.8zm-6-6c-4.3-0.1-8.4 0.8-8.4 4.5 0 2.4 1.5 3.5 3.5 3.5 2.4 0 4.2-1.6 4.7-3.3 0.2-0.4 0.2-0.9 0.2-1.3v-3.4z"/>
<path d="m119.6 28.2c0-3.2-0.1-5.7-0.2-8h5.3l0.3 3.7h0.1c1.8-2.7 4.6-4.3 8.3-4.3 5.5 0 10.1 4.8 10.1 12.3 0 8.7-5.5 12.9-11 12.9-3 0-5.5-1.3-6.8-3.2h-0.1v12.5h-6.1v-25.9zm6.1 6c0 0.6 0.1 1.1 0.2 1.7 0.6 2.5 2.8 4.3 5.3 4.3 3.9 0 6.1-3.2 6.1-8 0-4.3-2.1-7.7-6-7.7-2.5 0-4.8 1.8-5.4 4.5-0.1 0.5-0.2 1-0.2 1.5v3.7z"/>
<path d="m158.5 27.5c-1.3 0-2.8 0.1-3.9 0.3v-7.6h-6.1v24c2.2 0.2 4.7 0.3 7.3 0.3 3.6 0 8.2-0.5 11-2.7 1.8-1.3 3-3.2 3-6 0.1-6.4-5.8-8.3-11.3-8.3zm-1.1 12.9c-1.2 0-2-0.1-2.8-0.2v-8.2c0.8-0.1 1.7-0.2 2.7-0.2 2.7 0 6.5 0.8 6.5 4.3 0 3.4-3.6 4.3-6.4 4.3z"/>
<path d="m179.1 34c0.1 4.4 3.6 6.2 7.4 6.2 2.8 0 4.9-0.4 6.7-1.1l0.9 4.2c-2.1 0.8-4.9 1.5-8.4 1.5-7.8 0-12.4-4.8-12.4-12.2 0-6.7 4.1-13 11.8-13 7.9 0 10.4 6.4 10.4 11.7 0 1.1-0.1 2-0.2 2.6h-16.2zm10.6-4.3c0-2.2-0.9-5.9-5-5.9-3.8 0-5.3 3.4-5.6 5.9h10.6z"/>
<path d="m200.3 28.2c0-3.2-0.1-5.7-0.2-8h5.3l0.3 3.7h0.1c1.8-2.7 4.6-4.3 8.3-4.3 5.5 0 10.1 4.8 10.1 12.3 0 8.7-5.5 12.9-11 12.9-3 0-5.5-1.3-6.8-3.2h-0.1v12.5h-6.1v-25.9zm6.1 6c0 0.6 0.1 1.1 0.2 1.7 0.6 2.5 2.8 4.3 5.3 4.3 3.9 0 6.1-3.2 6.1-8 0-4.3-2.1-7.7-6-7.7-2.5 0-4.9 1.8-5.4 4.5-0.1 0.5-0.2 1-0.2 1.5v3.7z"/>
<path d="m235 20.2v8.7c0 3.8-0.1 6.4-0.3 9.7h0.2c1.3-2.8 2-4.6 3.3-7.1l5.9-11.3h7.4v24.1h-5.8v-8.6c0-3.9 0.1-5.6 0.4-10.2h-0.2c-1.2 2.9-2 4.6-3.2 6.9-1.9 3.6-4.1 7.9-6.1 11.9h-7.3v-24.1h5.7z"/>
<path d="m275.6 43.6c-1.3 0.6-3.8 1.3-6.8 1.3-7.5 0-12.4-4.8-12.4-12.3 0-7.2 4.9-12.9 13.4-12.9 2.2 0 4.5 0.5 5.9 1.1l-1.1 4.6c-1-0.4-2.4-0.9-4.6-0.9-4.7 0-7.4 3.4-7.4 7.8 0 4.9 3.2 7.8 7.4 7.8 2.1 0 3.6-0.4 4.8-0.9l0.8 4.4z"/>
<polygon points="298.7 20.2 298.7 24.9 291.5 24.9 291.5 44.3 285.4 44.3 285.4 24.9 278.2 24.9 278.2 20.2"/>
<path d="m301.8 44.8c-2.2 0-3.7-1.7-3.7-3.9 0-2.3 1.6-3.9 3.8-3.9s3.8 1.6 3.8 3.9c-0.1 2.3-1.5 3.9-3.9 3.9z"/>
<path d="m310.5 28.2c0-3.2-0.1-5.7-0.2-8h5.3l0.3 3.7h0.1c1.8-2.7 4.6-4.3 8.3-4.3 5.5 0 10.1 4.8 10.1 12.3 0 8.7-5.5 12.9-11 12.9-3 0-5.5-1.3-6.8-3.2h-0.1v12.5h-6.1v-25.9zm6.1 6c0 0.6 0.1 1.1 0.2 1.7 0.6 2.5 2.8 4.3 5.3 4.3 3.9 0 6.1-3.2 6.1-8 0-4.3-2.1-7.7-6-7.7-2.5 0-4.8 1.8-5.4 4.5-0.1 0.5-0.2 1-0.2 1.5v3.7z"/>
<path d="m342.6 20.2l4.4 12.9c0.5 1.5 1 3.3 1.3 4.7h0.2c0.4-1.4 0.8-3.2 1.3-4.8l3.8-12.9h6.5l-6 16.4c-3.3 9-5.5 13-8.4 15.5-2.4 2.1-4.8 2.9-6.4 3.1l-1.4-5.1c1-0.2 2.3-0.8 3.6-1.7 1.1-0.7 2.5-2.2 3.3-3.8 0.2-0.4 0.4-0.8 0.4-1.1 0-0.2-0.1-0.6-0.3-1.2l-8.8-22.1h6.5z"/>
</g>
<path class="st1" d="m43.4 10.9c0-0.9-0.8-1.7-1.7-1.7h-5c-0.9 0-1.7 0.8-1.7 1.7v4.8h-4.8c-0.9 0-1.7 0.8-1.7 1.7v4.8h-4.8c-0.9 0-1.7 0.8-1.7 1.7v4.7h-4.7c-0.9 0-1.7 0.8-1.7 1.7v4.8h-4.8c-0.9 0-1.7 0.8-1.7 1.7v5c0 0.9 0.8 1.7 1.7 1.7h30.8c0.9 0 1.7-0.8 1.7-1.7l0.1-30.9z"/>
</svg>
