<svg width="79.000000" height="79.000000" viewBox="0 0 79 79" fill="none" xmlns="http://www.w3.org/2000/svg" xmlns:xlink="http://www.w3.org/1999/xlink">
	<desc>
			Created with Pixso.
	</desc>
	<defs>
		<clipPath id="clip4_22">
			<rect id="emblem" width="79.000000" height="79.000000" fill="white" fill-opacity="0"/>
		</clipPath>
	</defs>
	<g clip-path="url(#clip4_22)">
		<path id="path" d="M39.51 78.47C61.04 78.47 78.49 61.02 78.49 39.5C78.49 17.97 61.04 0.52 39.51 0.52C17.98 0.52 0.53 17.97 0.53 39.5C0.53 61.02 17.98 78.47 39.51 78.47Z" fill="#FFFFFF" fill-opacity="1.000000" fill-rule="nonzero"/>
		<path id="path" d="M8.32 32.8C8.38 32.8 8.45 32.79 8.51 32.78C8.57 32.76 8.63 32.74 8.69 32.72C8.75 32.69 8.81 32.66 8.87 32.62C8.92 32.59 8.97 32.54 9.01 32.5C9.06 32.45 9.1 32.4 9.14 32.34C9.17 32.29 9.2 32.23 9.23 32.17C9.25 32.11 9.27 32.05 9.28 31.98C9.29 31.92 9.3 31.85 9.3 31.79C9.3 31.72 9.29 31.66 9.28 31.59C9.27 31.53 9.25 31.46 9.22 31.4C9.2 31.34 9.17 31.29 9.13 31.23C9.09 31.18 9.05 31.13 9 31.08C8.96 31.03 8.91 30.99 8.85 30.96C8.8 30.92 8.74 30.89 8.68 30.86C8.62 30.84 8.56 30.82 8.5 30.81C8.43 30.79 8.37 30.79 8.3 30.79C8.24 30.79 8.17 30.8 8.11 30.81C8.04 30.82 7.98 30.84 7.92 30.87C7.86 30.89 7.81 30.92 7.75 30.96C7.7 31 7.65 31.04 7.6 31.08C7.56 31.13 7.51 31.18 7.48 31.24C7.44 31.29 7.41 31.35 7.39 31.41C7.36 31.47 7.34 31.53 7.33 31.6C7.32 31.66 7.31 31.73 7.31 31.79C7.31 31.86 7.32 31.93 7.33 31.99C7.34 32.06 7.36 32.12 7.39 32.18C7.41 32.24 7.45 32.3 7.48 32.35C7.52 32.41 7.56 32.46 7.61 32.51C7.65 32.55 7.71 32.59 7.76 32.63C7.81 32.67 7.87 32.7 7.93 32.72C7.99 32.75 8.06 32.77 8.12 32.78C8.19 32.79 8.25 32.8 8.32 32.8Z" fill="#1D1D1B" fill-opacity="1.000000" fill-rule="nonzero"/>
		<path id="path" d="M70.68 32.8C70.75 32.8 70.81 32.79 70.88 32.78C70.94 32.76 71 32.74 71.06 32.72C71.12 32.69 71.18 32.66 71.23 32.62C71.29 32.59 71.34 32.54 71.38 32.5C71.43 32.45 71.47 32.4 71.51 32.34C71.54 32.29 71.57 32.23 71.6 32.17C71.62 32.11 71.64 32.05 71.65 31.98C71.66 31.92 71.67 31.85 71.67 31.79C71.67 31.72 71.66 31.66 71.65 31.59C71.64 31.53 71.62 31.46 71.59 31.4C71.57 31.34 71.53 31.29 71.5 31.23C71.46 31.18 71.42 31.13 71.37 31.08C71.33 31.03 71.28 30.99 71.22 30.96C71.17 30.92 71.11 30.89 71.05 30.86C70.99 30.84 70.93 30.82 70.86 30.81C70.8 30.79 70.74 30.79 70.67 30.79C70.61 30.79 70.54 30.8 70.48 30.81C70.41 30.82 70.35 30.84 70.29 30.87C70.23 30.89 70.17 30.92 70.12 30.96C70.07 31 70.02 31.04 69.97 31.08C69.92 31.13 69.88 31.18 69.85 31.24C69.81 31.29 69.78 31.35 69.76 31.41C69.73 31.47 69.71 31.53 69.7 31.6C69.69 31.66 69.68 31.73 69.68 31.79C69.68 31.86 69.69 31.93 69.7 31.99C69.71 32.06 69.73 32.12 69.76 32.18C69.78 32.24 69.81 32.3 69.85 32.35C69.89 32.41 69.93 32.46 69.98 32.51C70.02 32.55 70.07 32.59 70.13 32.63C70.18 32.67 70.24 32.7 70.3 32.72C70.36 32.75 70.43 32.77 70.49 32.78C70.55 32.79 70.62 32.8 70.68 32.8Z" fill="#1D1D1B" fill-opacity="1.000000" fill-rule="nonzero"/>
		<path id="path" d="M39.51 7.62e-6C38.54 -0.01 37.57 0.03 36.6 0.1C35.64 0.17 34.68 0.28 33.72 0.42C32.76 0.56 31.81 0.74 30.86 0.95C29.91 1.16 28.98 1.41 28.05 1.69C27.12 1.97 26.2 2.29 25.3 2.63C24.39 2.98 23.5 3.37 22.62 3.78C21.75 4.19 20.89 4.64 20.04 5.12C19.19 5.6 18.37 6.11 17.56 6.65C11.06 10.98 6 17.15 3.01 24.37C2.63 25.27 2.3 26.17 1.99 27.09C1.69 28.01 1.42 28.94 1.18 29.88C0.95 30.83 0.74 31.77 0.58 32.73C0.41 33.68 0.28 34.65 0.19 35.61C0.09 36.58 0.03 37.54 0.01 38.51C-0.02 39.48 6.1e-5 40.45 0.04 41.42C0.09 42.39 0.17 43.36 0.29 44.32C0.41 45.28 0.56 46.24 0.75 47.19C2.28 54.86 6.04 61.9 11.56 67.42C17.08 72.95 24.12 76.71 31.78 78.24C32.74 78.42 33.69 78.58 34.66 78.7C35.62 78.82 36.58 78.9 37.55 78.95C38.52 79 39.49 79.01 40.46 78.98C41.43 78.96 42.39 78.9 43.36 78.81C44.32 78.71 45.28 78.58 46.24 78.41C47.2 78.25 48.14 78.05 49.09 77.81C50.03 77.58 50.96 77.31 51.88 77C52.8 76.7 53.71 76.36 54.61 75.99C61.83 73 68 67.94 72.34 61.44C72.88 60.64 73.38 59.81 73.86 58.97C74.34 58.13 74.78 57.27 75.2 56.39C75.61 55.52 76 54.63 76.34 53.72C76.69 52.82 77.01 51.9 77.29 50.97C77.57 50.04 77.82 49.11 78.03 48.16C78.25 47.21 78.42 46.26 78.57 45.3C78.71 44.34 78.82 43.37 78.89 42.4C78.96 41.44 78.99 40.47 79 39.5C79 29.02 74.83 18.98 67.43 11.57C60.03 4.16 49.98 0 39.51 7.62e-6ZM39.51 77.93C38.56 77.93 37.62 77.89 36.68 77.83C35.74 77.76 34.81 77.65 33.87 77.51C32.94 77.38 32.01 77.2 31.09 77C30.17 76.79 29.26 76.55 28.36 76.28C27.45 76 26.56 75.69 25.68 75.36C24.8 75.02 23.93 74.64 23.08 74.24C22.22 73.84 21.39 73.4 20.56 72.94C19.74 72.47 18.93 71.97 18.15 71.45C11.83 67.22 6.9 61.22 3.99 54.2C3.63 53.32 3.3 52.44 3 51.54C2.71 50.65 2.44 49.74 2.21 48.83C1.98 47.91 1.79 46.99 1.63 46.06C1.47 45.13 1.34 44.19 1.25 43.25C1.15 42.31 1.1 41.37 1.07 40.43C1.05 39.48 1.06 38.54 1.11 37.6C1.15 36.65 1.24 35.71 1.35 34.78C1.47 33.84 1.62 32.91 1.8 31.98C3.28 24.52 6.95 17.67 12.32 12.3C17.7 6.92 24.55 3.26 32.01 1.78C32.93 1.59 33.86 1.44 34.8 1.33C35.74 1.21 36.68 1.13 37.62 1.08C38.56 1.04 39.51 1.02 40.45 1.05C41.39 1.07 42.33 1.13 43.27 1.22C44.21 1.31 45.15 1.44 46.08 1.6C47.01 1.76 47.93 1.96 48.85 2.19C49.76 2.42 50.67 2.68 51.56 2.98C52.46 3.27 53.35 3.6 54.22 3.96C61.25 6.87 67.25 11.8 71.47 18.12C71.78 18.58 72.07 19.04 72.36 19.51C72.65 19.98 72.92 20.46 73.19 20.94C73.45 21.42 73.71 21.91 73.95 22.4C74.19 22.9 74.43 23.39 74.65 23.9C74.87 24.4 75.08 24.91 75.29 25.42C75.49 25.93 75.68 26.45 75.86 26.97C76.03 27.49 76.2 28.02 76.36 28.55C76.51 29.07 76.66 29.61 76.79 30.14C76.93 30.67 77.05 31.21 77.16 31.75C77.27 32.29 77.37 32.83 77.46 33.38C77.54 33.92 77.62 34.47 77.68 35.02C77.75 35.56 77.8 36.11 77.84 36.66C77.88 37.21 77.91 37.76 77.93 38.31C77.94 38.86 77.95 39.42 77.94 39.97C77.93 40.52 77.91 41.07 77.88 41.62C77.85 42.17 77.81 42.72 77.76 43.27C77.7 43.82 77.64 44.36 77.56 44.91C77.48 45.46 77.39 46 77.29 46.54C77.19 47.08 77.08 47.62 76.96 48.16C76.83 48.7 76.7 49.23 76.55 49.76C76.4 50.29 76.24 50.82 76.07 51.34C75.91 51.87 75.72 52.39 75.53 52.9C75.34 53.42 75.14 53.93 74.92 54.44C74.71 54.95 74.49 55.45 74.25 55.95C74.02 56.44 73.77 56.94 73.51 57.42C73.26 57.91 72.99 58.39 72.71 58.87C72.44 59.34 72.15 59.81 71.85 60.27C71.56 60.73 71.25 61.19 70.93 61.64C70.62 62.09 70.29 62.53 69.95 62.96C69.62 63.4 69.27 63.83 68.92 64.25C68.57 64.67 68.2 65.08 67.83 65.48C67.46 65.89 67.08 66.28 66.69 66.67C66.25 67.11 65.79 67.55 65.32 67.97C64.85 68.39 64.37 68.81 63.89 69.21C63.4 69.61 62.9 69.99 62.4 70.37C61.89 70.74 61.37 71.11 60.85 71.46C60.33 71.81 59.79 72.14 59.25 72.47C58.71 72.79 58.17 73.1 57.61 73.4C57.06 73.69 56.49 73.98 55.92 74.25C55.36 74.51 54.78 74.77 54.2 75.01C53.62 75.25 53.03 75.48 52.44 75.69C51.85 75.9 51.25 76.1 50.65 76.28C50.05 76.46 49.44 76.63 48.83 76.78C48.22 76.94 47.61 77.07 46.99 77.2C46.38 77.32 45.76 77.42 45.14 77.52C44.52 77.61 43.89 77.69 43.27 77.75C42.64 77.81 42.02 77.85 41.39 77.88C40.76 77.91 40.14 77.93 39.51 77.93Z" fill="#1D1D1B" fill-opacity="1.000000" fill-rule="nonzero"/>
		<path id="path" d="M39.51 14.32C38.27 14.32 37.04 14.41 35.82 14.59C34.59 14.77 33.39 15.04 32.2 15.4C31.02 15.76 29.87 16.21 28.75 16.73C27.63 17.26 26.55 17.87 25.52 18.56C24.49 19.25 23.52 20 22.6 20.83C21.69 21.66 20.84 22.56 20.05 23.52C19.27 24.47 18.56 25.48 17.92 26.55C17.28 27.61 16.72 28.71 16.25 29.86C16.13 30.15 16.02 30.43 15.91 30.72C15.8 31.01 15.7 31.3 15.6 31.6C15.51 31.89 15.41 32.19 15.33 32.48C15.24 32.78 15.16 33.08 15.09 33.38C15.01 33.68 14.94 33.98 14.88 34.28C14.81 34.59 14.76 34.89 14.7 35.2C14.65 35.5 14.6 35.81 14.56 36.11C14.52 36.42 14.48 36.73 14.45 37.03C14.42 37.34 14.4 37.65 14.38 37.96C14.36 38.27 14.35 38.58 14.34 38.89C14.33 39.2 14.33 39.51 14.34 39.81C14.34 40.12 14.35 40.43 14.36 40.74C14.38 41.05 14.4 41.36 14.43 41.67C14.45 41.98 14.49 42.28 14.52 42.59C14.56 42.9 14.6 43.2 14.65 43.51C14.7 43.82 14.76 44.12 14.82 44.42C14.88 44.73 14.94 45.03 15.02 45.33C15.09 45.63 15.16 45.93 15.25 46.23C15.33 46.53 15.42 46.82 15.51 47.12C15.6 47.41 15.7 47.71 15.81 48C15.91 48.29 16.02 48.58 16.13 48.86C16.25 49.15 16.37 49.43 16.49 49.72C16.62 50 16.75 50.28 16.89 50.56C17.02 50.83 17.16 51.11 17.31 51.38C17.45 51.65 17.6 51.92 17.76 52.19C17.91 52.46 18.08 52.72 18.24 52.98C18.41 53.24 18.58 53.5 18.75 53.75C18.93 54.01 19.1 54.26 19.29 54.5C19.47 54.75 19.66 55 19.85 55.24C20.05 55.48 20.24 55.71 20.45 55.95C20.65 56.18 20.85 56.41 21.06 56.63C21.27 56.86 21.49 57.08 21.7 57.3C22.03 57.63 22.37 57.94 22.72 58.25C23.06 58.56 23.42 58.86 23.78 59.15C24.14 59.44 24.51 59.72 24.89 59.99C25.27 60.26 25.65 60.52 26.05 60.77C26.44 61.02 26.84 61.26 27.24 61.48C27.65 61.71 28.06 61.92 28.47 62.13C28.89 62.33 29.31 62.52 29.74 62.7C30.16 62.88 30.59 63.05 31.03 63.21C31.47 63.36 31.91 63.51 32.35 63.64C32.79 63.77 33.24 63.89 33.69 64C34.14 64.11 34.59 64.2 35.05 64.28C35.5 64.37 35.96 64.43 36.42 64.49C36.88 64.55 37.34 64.59 37.8 64.62C38.26 64.66 38.72 64.67 39.19 64.68C39.65 64.69 40.11 64.68 40.57 64.66C41.04 64.64 41.5 64.61 41.96 64.56C42.42 64.52 42.88 64.46 43.33 64.39C43.79 64.32 44.24 64.23 44.7 64.14C45.15 64.04 45.6 63.93 46.05 63.81C46.49 63.69 46.94 63.56 47.38 63.41C47.82 63.27 48.25 63.11 48.68 62.94C49.11 62.77 49.54 62.59 49.96 62.4C50.38 62.2 50.8 62 51.21 61.78C51.62 61.57 52.02 61.34 52.42 61.1C52.82 60.86 53.21 60.61 53.59 60.35C53.98 60.09 54.35 59.82 54.72 59.54C55.09 59.26 55.45 58.97 55.81 58.67C56.16 58.37 56.51 58.06 56.84 57.74C57.18 57.42 57.51 57.09 57.83 56.75C58.15 56.41 58.46 56.06 58.76 55.71C59.06 55.35 59.35 54.99 59.63 54.62C59.91 54.25 60.18 53.87 60.44 53.48C60.64 53.18 60.83 52.88 61.02 52.57C61.21 52.26 61.39 51.95 61.56 51.64C61.73 51.32 61.9 51 62.06 50.68C62.22 50.36 62.37 50.03 62.52 49.7C62.67 49.37 62.8 49.04 62.94 48.7C63.07 48.37 63.19 48.03 63.31 47.69C63.43 47.35 63.54 47 63.64 46.66C63.74 46.31 63.84 45.96 63.92 45.61C64.01 45.26 64.09 44.91 64.16 44.56C64.24 44.2 64.3 43.85 64.36 43.49C64.41 43.14 64.46 42.78 64.51 42.42C64.55 42.06 64.58 41.7 64.61 41.34C64.63 40.98 64.65 40.62 64.66 40.26C64.68 39.9 64.68 39.54 64.67 39.18C64.67 38.82 64.66 38.46 64.64 38.1C64.62 37.74 64.59 37.38 64.55 37.02C64.52 36.66 64.48 36.3 64.42 35.94C64.37 35.58 64.32 35.23 64.25 34.87C64.18 34.52 64.11 34.16 64.03 33.81C63.95 33.46 63.86 33.11 63.76 32.76C63.67 32.42 63.56 32.07 63.45 31.73C63.34 31.38 63.22 31.04 63.1 30.71C62.97 30.37 62.84 30.03 62.7 29.7C62.56 29.37 62.41 29.04 62.26 28.71C62.1 28.39 61.94 28.07 61.78 27.75C61.61 27.43 61.43 27.11 61.25 26.8C61.07 26.49 60.88 26.18 60.69 25.88C60.49 25.58 60.29 25.28 60.09 24.99C59.88 24.69 59.66 24.4 59.44 24.12C59.22 23.83 59 23.55 58.77 23.28C58.54 23 58.3 22.73 58.05 22.47C57.81 22.21 57.56 21.95 57.31 21.69C56.72 21.11 56.11 20.55 55.47 20.03C54.83 19.51 54.17 19.02 53.48 18.56C52.8 18.1 52.09 17.68 51.36 17.29C50.63 16.9 49.89 16.55 49.13 16.23C48.37 15.91 47.59 15.64 46.8 15.4C46.02 15.16 45.22 14.96 44.41 14.8C43.6 14.64 42.79 14.52 41.97 14.44C41.15 14.36 40.33 14.32 39.51 14.32ZM39.51 64.08C38.3 64.08 37.1 63.99 35.9 63.81C34.71 63.63 33.53 63.37 32.38 63.02C31.22 62.67 30.1 62.23 29 61.72C27.91 61.2 26.86 60.61 25.85 59.93C24.85 59.26 23.9 58.52 23 57.71C22.11 56.9 21.28 56.03 20.51 55.1C19.75 54.16 19.05 53.18 18.43 52.14C17.81 51.1 17.26 50.02 16.8 48.9C16.57 48.34 16.36 47.78 16.17 47.2C15.98 46.63 15.81 46.05 15.66 45.47C15.52 44.88 15.39 44.29 15.29 43.69C15.19 43.1 15.11 42.5 15.05 41.9C14.99 41.3 14.95 40.69 14.94 40.09C14.92 39.49 14.93 38.88 14.96 38.28C14.99 37.67 15.04 37.07 15.11 36.47C15.19 35.87 15.28 35.28 15.4 34.68C15.52 34.09 15.66 33.5 15.82 32.92C15.98 32.34 16.16 31.76 16.37 31.2C16.57 30.63 16.79 30.07 17.04 29.52C17.28 28.96 17.55 28.42 17.83 27.89C18.12 27.36 18.42 26.84 18.74 26.33C19.07 25.82 19.41 25.32 19.77 24.84C20.13 24.36 20.5 23.89 20.9 23.43C21.29 22.98 21.7 22.54 22.13 22.11C22.45 21.79 22.78 21.48 23.11 21.18C23.45 20.88 23.8 20.58 24.15 20.3C24.51 20.02 24.87 19.74 25.24 19.48C25.61 19.22 25.98 18.96 26.36 18.72C26.75 18.48 27.14 18.25 27.53 18.03C27.93 17.81 28.33 17.6 28.73 17.4C29.14 17.2 29.55 17.01 29.97 16.84C30.38 16.66 30.81 16.5 31.23 16.34C31.66 16.19 32.09 16.05 32.52 15.92C32.95 15.79 33.39 15.68 33.83 15.57C34.27 15.47 34.71 15.37 35.15 15.29C35.6 15.21 36.04 15.15 36.49 15.09C36.94 15.03 37.39 14.99 37.84 14.96C38.29 14.93 38.74 14.91 39.19 14.91C39.65 14.9 40.1 14.91 40.55 14.93C41 14.95 41.45 14.98 41.9 15.02C42.35 15.07 42.8 15.12 43.24 15.19C43.69 15.26 44.13 15.34 44.57 15.44C45.02 15.53 45.46 15.64 45.89 15.75C46.33 15.87 46.76 16 47.19 16.14C47.62 16.29 48.04 16.44 48.46 16.6C48.89 16.77 49.3 16.95 49.71 17.14C50.12 17.32 50.53 17.52 50.93 17.73C51.33 17.95 51.73 18.17 52.11 18.4C52.5 18.63 52.88 18.88 53.26 19.13C53.63 19.38 54 19.65 54.36 19.92C54.72 20.2 55.08 20.48 55.42 20.77C55.77 21.07 56.1 21.37 56.43 21.68C56.76 22 57.08 22.32 57.39 22.65C57.71 22.98 58.01 23.32 58.3 23.66C58.6 24.01 58.88 24.37 59.15 24.73C59.43 25.09 59.69 25.46 59.94 25.84C60.62 26.84 61.21 27.89 61.73 28.98C62.24 30.07 62.68 31.2 63.03 32.35C63.38 33.51 63.64 34.69 63.82 35.88C64 37.08 64.09 38.28 64.09 39.5C64.09 46.01 61.5 52.27 56.89 56.88C52.28 61.49 46.03 64.08 39.51 64.08Z" fill="#1D1D1B" fill-opacity="1.000000" fill-rule="nonzero"/>
		<path id="path" d="M54.41 26.71L48.62 26.71L48.62 25.25L46.43 25.25L46.43 18.93L37.6 18.93C37.22 18.91 36.84 18.93 36.46 19C36.09 19.06 35.72 19.16 35.37 19.3C35.01 19.45 34.68 19.63 34.36 19.84C34.04 20.06 33.75 20.3 33.49 20.58C33.26 20.86 33.05 21.16 32.88 21.48C32.7 21.8 32.55 22.13 32.44 22.47C32.32 22.82 32.23 23.17 32.18 23.54C32.13 23.9 32.11 24.26 32.13 24.63L32.13 26.7L25.22 26.7L22.33 53.73L39.79 61.17L57.25 53.73L54.41 26.71ZM39.84 60.54L39.78 60.54L23.02 53.4L25.78 27.43L25.78 27.28L32.77 27.28L32.77 24.63C32.76 24.29 32.77 23.96 32.82 23.62C32.86 23.29 32.94 22.96 33.04 22.65C33.15 22.33 33.28 22.02 33.45 21.73C33.61 21.44 33.8 21.16 34.01 20.9C34.25 20.66 34.51 20.44 34.79 20.25C35.07 20.06 35.37 19.91 35.68 19.78C35.99 19.66 36.32 19.57 36.65 19.51C36.99 19.46 37.32 19.44 37.66 19.45L45.89 19.45L45.89 25.75L48.09 25.75L48.09 27.28L53.93 27.28L53.93 27.35L56.66 53.32L39.84 60.54Z" fill="#1D1D1B" fill-opacity="1.000000" fill-rule="nonzero"/>
		<path id="path" d="M48.05 30.24L45.86 30.24L45.86 34.24L48.05 34.24L48.05 35.25L53.72 35.25L52.99 28.3L48.05 28.3L48.05 30.24Z" fill="#00B1EB" fill-opacity="1.000000" fill-rule="evenodd"/>
		<path id="path" d="M26.65 28.3L25.91 35.25L32.72 35.25L32.72 28.3L26.65 28.3Z" fill="#00B1EB" fill-opacity="1.000000" fill-rule="evenodd"/>
		<path id="path" d="M53.82 36.2L48.05 36.2L48.05 38.68L45.89 38.68L45.89 42.05L39.02 42.05L39.02 36.2L36.46 36.2L36.46 36.85C36.46 40.18 33.37 41.93 30.26 41.93L29.94 41.93L29.94 38.3L30.14 38.3C31.58 38.3 32.62 37.55 32.62 36.54L32.62 36.2L25.8 36.2L24.05 52.74L39.82 59.45L55.58 52.74L53.82 36.2Z" fill="#005CA9" fill-opacity="1.000000" fill-rule="evenodd"/>
		<path id="path" d="M39.02 28.3L36.46 28.3L36.46 35.25L39.02 35.25L39.02 28.3Z" fill="#00B1EB" fill-opacity="1.000000" fill-rule="nonzero"/>
		<path id="path" d="M38.19 22.74C37.95 22.74 37.71 22.79 37.48 22.89C37.26 22.99 37.06 23.13 36.9 23.32C36.82 23.41 36.75 23.5 36.68 23.61C36.62 23.71 36.57 23.83 36.53 23.94C36.5 24.06 36.47 24.18 36.46 24.3C36.44 24.42 36.44 24.54 36.46 24.66L36.46 27.28L39.02 27.28L39.02 22.74L38.19 22.74ZM38.45 26.71L37.03 26.71L37.03 24.66C37.01 24.49 37.03 24.33 37.08 24.17C37.13 24.01 37.21 23.87 37.32 23.74C37.43 23.61 37.56 23.51 37.71 23.44C37.86 23.36 38.02 23.32 38.19 23.31L38.45 23.31L38.45 26.71Z" fill="#000000" fill-opacity="1.000000" fill-rule="evenodd"/>
		<path id="path" d="M34.05 46.64C33.91 46.63 33.77 46.66 33.65 46.74C33.52 46.81 33.43 46.92 33.37 47.05C33.23 47.32 33.16 47.62 33.17 47.93L32.62 47.93C32.61 47.69 32.63 47.47 32.69 47.24C32.75 47.01 32.85 46.81 32.98 46.61C33.11 46.44 33.27 46.3 33.47 46.21C33.66 46.12 33.87 46.08 34.09 46.09C34.27 46.09 34.45 46.12 34.63 46.19C34.8 46.25 34.96 46.35 35.09 46.48C35.24 46.62 35.34 46.79 35.42 46.98C35.49 47.18 35.52 47.38 35.5 47.58C35.51 47.78 35.49 47.97 35.43 48.16C35.37 48.35 35.29 48.52 35.17 48.67C34.94 48.93 34.69 49.17 34.41 49.37C34.12 49.57 33.85 49.76 33.59 49.96C33.47 50.06 33.37 50.17 33.29 50.3C33.21 50.44 33.16 50.58 33.13 50.73L35.45 50.73L35.45 51.28L32.5 51.28C32.5 51.03 32.54 50.8 32.61 50.57C32.69 50.34 32.79 50.12 32.93 49.93C33.18 49.63 33.46 49.38 33.78 49.16C34.09 48.94 34.38 48.7 34.65 48.42C34.74 48.31 34.82 48.17 34.87 48.02C34.92 47.88 34.94 47.72 34.93 47.57C34.94 47.44 34.92 47.32 34.87 47.21C34.83 47.09 34.76 46.99 34.67 46.9C34.59 46.81 34.49 46.75 34.39 46.71C34.28 46.66 34.17 46.64 34.05 46.64Z" fill="#FFFFFF" fill-opacity="1.000000" fill-rule="nonzero"/>
		<path id="path" d="M37.76 51.36C37.62 51.38 37.48 51.36 37.35 51.33C37.21 51.29 37.09 51.23 36.97 51.15C36.86 51.07 36.76 50.97 36.68 50.85C36.61 50.73 36.55 50.61 36.52 50.47C36.37 49.9 36.29 49.31 36.29 48.72C36.29 48.13 36.37 47.55 36.52 46.97C36.62 46.71 36.79 46.5 37.02 46.34C37.14 46.26 37.26 46.2 37.39 46.16C37.53 46.11 37.66 46.09 37.8 46.09C37.94 46.09 38.08 46.11 38.21 46.16C38.34 46.2 38.46 46.26 38.58 46.34C38.81 46.5 38.98 46.71 39.08 46.97C39.23 47.55 39.3 48.13 39.3 48.72C39.3 49.31 39.23 49.9 39.08 50.47C39.05 50.62 39 50.75 38.91 50.88C38.83 51 38.72 51.1 38.6 51.18C38.48 51.27 38.34 51.33 38.2 51.36C38.05 51.39 37.9 51.39 37.76 51.36ZM37.76 46.64C37.65 46.63 37.55 46.65 37.46 46.69C37.36 46.72 37.27 46.77 37.19 46.85C37.12 46.92 37.06 47 37.02 47.1C36.98 47.19 36.95 47.29 36.95 47.4C36.79 48.28 36.79 49.17 36.95 50.06C36.96 50.16 36.99 50.25 37.04 50.34C37.09 50.43 37.15 50.51 37.22 50.57C37.26 50.61 37.3 50.64 37.34 50.66C37.38 50.69 37.43 50.71 37.47 50.73C37.52 50.74 37.57 50.76 37.62 50.77C37.67 50.78 37.71 50.78 37.76 50.78C37.81 50.78 37.86 50.78 37.91 50.77C37.96 50.76 38.01 50.74 38.05 50.73C38.1 50.71 38.14 50.69 38.19 50.66C38.23 50.64 38.27 50.61 38.31 50.57C38.38 50.51 38.44 50.43 38.49 50.34C38.53 50.25 38.56 50.16 38.58 50.06C38.73 49.17 38.73 48.28 38.58 47.4C38.58 47.29 38.55 47.19 38.51 47.09C38.47 47 38.41 46.91 38.33 46.84C38.25 46.77 38.16 46.72 38.06 46.68C37.97 46.65 37.86 46.63 37.76 46.64Z" fill="#FFFFFF" fill-opacity="1.000000" fill-rule="nonzero"/>
		<path id="path" d="M41.95 46.09L41.95 51.28L41.33 51.28L41.33 47.56L40.16 47.56L40.16 47.06C40.46 47.07 40.73 47 40.99 46.87C41.13 46.79 41.24 46.68 41.32 46.55C41.4 46.41 41.44 46.26 41.45 46.11L41.95 46.09Z" fill="#FFFFFF" fill-opacity="1.000000" fill-rule="nonzero"/>
		<path id="path" d="M45.89 46.09L45.89 49.52L46.4 49.52L46.4 50.06L45.89 50.06L45.89 51.3L45.4 51.3L45.4 50.06L43.41 50.06L43.41 49.43L45.46 46.09L45.89 46.09ZM43.85 49.52L45.4 49.52L45.4 46.96L43.85 49.52Z" fill="#FFFFFF" fill-opacity="1.000000" fill-rule="nonzero"/>
		<path id="path" d="M36.62 5.99L37.05 5.95L37.25 8.99L36.82 9.01L36.83 9.12L38.2 9.02L38.19 8.91L37.77 8.95L37.57 5.92L37.99 5.9L37.99 5.77L36.62 5.87L36.62 5.99Z" fill="#1D1D1B" fill-opacity="1.000000" fill-rule="nonzero"/>
		<path id="path" d="M50.58 7.72L51.05 7.87L50.36 9.97L49.54 7.25L48.56 6.93L48.52 7.04L48.92 7.16L47.96 10.04L47.57 9.92L47.53 10.02L48.54 10.35L48.57 10.25L48.09 10.09L49.02 7.31L50.1 10.92L50.18 10.93L51.19 7.92L51.59 8.04L51.62 7.94L50.62 7.61L50.58 7.72Z" fill="#1D1D1B" fill-opacity="1.000000" fill-rule="nonzero"/>
		<path id="path" d="M22.12 10.7L22.49 10.49L24 13.12L23.63 13.33L23.68 13.43L24.87 12.74L24.82 12.64L24.45 12.86L22.94 10.23L23.31 10.02L23.25 9.92L22.06 10.61L22.12 10.7Z" fill="#1D1D1B" fill-opacity="1.000000" fill-rule="nonzero"/>
		<path id="path" d="M69.16 23.72L69.4 24.15L67.46 25.22L68.7 22.68L68.2 21.76L68.11 21.82L68.3 22.18L65.65 23.66L65.45 23.29L65.35 23.34L65.86 24.27L65.96 24.22L65.71 23.77L68.28 22.36L68.28 22.37L66.62 25.74L66.68 25.82L69.46 24.28L69.66 24.64L69.77 24.59L69.26 23.67L69.16 23.72Z" fill="#1D1D1B" fill-opacity="1.000000" fill-rule="nonzero"/>
		<path id="path" d="M62.1 14.62L62.41 14.89L61.47 15.94L60.42 15L61.36 13.95L61.66 14.22L61.74 14.13L60.73 13.23L60.65 13.31L60.97 13.6L58.95 15.86L58.63 15.57L58.56 15.66L59.57 16.56L59.65 16.49L59.34 16.2L60.34 15.09L61.4 16.03L60.39 17.16L60.08 16.87L60.01 16.96L61.02 17.87L61.1 17.78L60.78 17.49L62.8 15.24L63.12 15.52L63.19 15.45L62.18 14.53L62.1 14.62Z" fill="#1D1D1B" fill-opacity="1.000000" fill-rule="nonzero"/>
		<path id="path" d="M11.85 20.37L12.09 20.02L13.25 20.82L12.46 22L11.29 21.2L11.52 20.87L11.43 20.79L10.66 21.92L10.76 21.98L10.99 21.64L13.51 23.34L13.26 23.68L13.36 23.75L14.12 22.63L14.03 22.57L13.8 22.9L12.56 22.06L13.35 20.88L14.59 21.72L14.37 22.07L14.45 22.13L15.22 21L15.12 20.94L14.89 21.3L12.37 19.6L12.62 19.24L12.52 19.18L11.76 20.31L11.85 20.37Z" fill="#1D1D1B" fill-opacity="1.000000" fill-rule="nonzero"/>
		<path id="path" d="M56.96 10.6L56.88 10.6L54.3 12.78L53.98 12.58L53.98 12.68L54.85 13.2L54.85 13.1L54.44 12.86L55.26 12.15L55.98 12.58L55.72 13.62L55.31 13.38L55.31 13.48L56.55 14.23L56.55 14.13L56.19 13.92L56.96 10.6ZM55.37 12.01L56.31 11.22L56.01 12.46L55.37 12.01Z" fill="#1D1D1B" fill-opacity="1.000000" fill-rule="nonzero"/>
		<path id="path" d="M13.93 17.46L13.93 17.53L15.66 20.43L15.41 20.72L15.5 20.79L16.15 20.02L16.07 19.95L15.76 20.31L15.2 19.39L15.76 18.75L16.74 19.18L16.43 19.54L16.51 19.61L17.47 18.5L17.37 18.42L17.1 18.75L13.93 17.46ZM15.06 19.27L14.43 18.21L15.55 18.7L15.06 19.27Z" fill="#1D1D1B" fill-opacity="1.000000" fill-rule="nonzero"/>
		<path id="path" d="M17.75 13.82L18.13 13.5L19.54 15.1C19.9 15.51 20.07 15.83 19.43 16.4C18.78 16.97 18.6 16.76 18.19 16.33L16.76 14.7L17.1 14.41L17.02 14.32L15.98 15.24L16.05 15.32L16.36 15.05L17.84 16.71C18.25 17.17 18.57 17.33 19.4 16.6C20.23 15.87 20.07 15.51 19.66 15.05L18.23 13.41L18.51 13.17L18.44 13.08L17.68 13.75L17.75 13.82Z" fill="#1D1D1B" fill-opacity="1.000000" fill-rule="nonzero"/>
		<path id="path" d="M9.93 23.45L10.16 23L12.11 24.03L9.31 24.4L8.82 25.32L8.92 25.38L9.12 25L11.81 26.4L11.61 26.77L11.71 26.83L12.21 25.89L12.1 25.84L11.88 26.29L9.27 24.94L9.28 24.92L13.02 24.44L13.04 24.35L10.23 22.89L10.41 22.52L10.31 22.47L9.83 23.4L9.93 23.45Z" fill="#1D1D1B" fill-opacity="1.000000" fill-rule="nonzero"/>
		<path id="path" d="M20.77 11.53L21.18 11.26L22.43 13.07L19.78 12.09L18.92 12.68L18.98 12.78L19.32 12.53L21.05 15.03L20.71 15.26L20.78 15.36L21.65 14.75L21.57 14.67L21.16 14.95L19.49 12.55L19.5 12.55L23.04 13.85L23.1 13.79L21.29 11.18L21.62 10.93L21.56 10.85L20.71 11.44L20.77 11.53Z" fill="#1D1D1B" fill-opacity="1.000000" fill-rule="nonzero"/>
		<path id="path" d="M8.2 27.24L8.37 26.85L11.17 28L11.01 28.4L11.11 28.44L11.63 27.17L11.53 27.13L11.37 27.53L8.56 26.36L8.73 25.96L8.63 25.93L8.09 27.19L8.2 27.24Z" fill="#1D1D1B" fill-opacity="1.000000" fill-rule="nonzero"/>
		<path id="path" d="M25.6 8.84L26.04 8.64L26.32 11.14L24.61 9.31L25.03 9.11L24.98 9.01L23.73 9.59L23.78 9.71L24.12 9.54L26.45 11.98L26.53 11.94L26.17 8.56L26.48 8.42L26.44 8.32L25.57 8.74L25.6 8.84Z" fill="#1D1D1B" fill-opacity="1.000000" fill-rule="nonzero"/>
		<path id="path" d="M29.68 10.51L29.03 10.74L28.53 9.35L28.77 9.27C29.26 9.1 29.34 9.27 29.54 9.77L29.66 9.77L29.15 8.29L29.03 8.29C29.19 8.75 29.23 8.95 28.72 9.12L28.53 9.21L28.06 7.88L28.27 7.81C29.25 7.46 29.44 7.49 29.83 8.21L29.94 8.21L29.59 7.28L27.1 8.13L27.1 8.24L27.51 8.11L28.53 10.91L28.12 11.05L28.12 11.16L30.71 10.25L30.38 9.18L30.27 9.18C30.44 9.92 30.34 10.29 29.68 10.51Z" fill="#1D1D1B" fill-opacity="1.000000" fill-rule="nonzero"/>
		<path id="path" d="M64.67 22.14L64.27 21.57L65.51 20.73L65.65 20.93C65.96 21.36 65.85 21.48 65.38 21.81L65.45 21.92L66.69 21.03L66.62 20.92C66.21 21.2 66.03 21.29 65.72 20.86L65.59 20.66L66.74 19.85L66.87 20.02C67.46 20.88 67.5 21.07 66.87 21.64L66.93 21.74L67.73 21.14L66.23 18.99L66.15 19.06L66.39 19.4L63.91 21.14L63.67 20.79L63.58 20.86L65.15 23.1L66.08 22.49L66.01 22.39C65.49 22.7 65.08 22.72 64.67 22.14Z" fill="#1D1D1B" fill-opacity="1.000000" fill-rule="nonzero"/>
		<path id="path" d="M33.38 8.76C33.18 8.07 32.96 8.03 32.28 8.11C32.69 7.96 32.98 7.72 32.86 7.21C32.74 6.7 32.29 6.54 31.72 6.68L30.48 6.99L30.48 7.1L30.9 7L31.56 9.92L31.14 10.02L31.14 10.13L32.46 9.82L32.46 9.71L32.07 9.79L31.72 8.3L32 8.24C32.57 8.11 32.71 8.24 32.88 8.85C33.06 9.46 33.16 9.67 33.7 9.54L34.03 9.47L34.03 9.36L33.91 9.36C33.6 9.46 33.49 9.23 33.38 8.76ZM31.68 8.18L31.37 6.85L31.61 6.85C32.07 6.74 32.26 6.95 32.36 7.37C32.46 7.8 32.36 8.07 31.99 8.17L31.68 8.18Z" fill="#1D1D1B" fill-opacity="1.000000" fill-rule="nonzero"/>
		<path id="path" d="M34.46 6.75C34.46 6.6 34.51 6.47 34.62 6.36C34.72 6.26 34.85 6.2 35 6.2C35.43 6.2 35.72 6.34 35.9 6.85L36.02 6.85L35.9 6.15C35.62 6.06 35.33 6.03 35.04 6.06C34.91 6.06 34.79 6.09 34.67 6.15C34.56 6.2 34.45 6.28 34.37 6.38C34.28 6.48 34.22 6.59 34.18 6.71C34.14 6.83 34.12 6.96 34.14 7.09C34.29 8.21 36 7.66 36.11 8.53C36.11 8.96 35.82 9.21 35.45 9.26C35.33 9.27 35.2 9.25 35.08 9.22C34.96 9.18 34.85 9.12 34.75 9.04C34.65 8.96 34.57 8.87 34.51 8.76C34.44 8.65 34.4 8.53 34.38 8.4L34.26 8.4L34.41 9.31C34.73 9.41 35.07 9.43 35.4 9.38C35.54 9.38 35.68 9.34 35.8 9.28C35.93 9.22 36.04 9.13 36.13 9.03C36.23 8.92 36.3 8.8 36.34 8.67C36.39 8.53 36.4 8.4 36.39 8.25C36.25 7 34.56 7.56 34.46 6.75Z" fill="#1D1D1B" fill-opacity="1.000000" fill-rule="nonzero"/>
		<path id="path" d="M58.51 12.4C58.53 12.37 58.56 12.34 58.59 12.31C58.62 12.29 58.65 12.27 58.68 12.25C58.72 12.23 58.75 12.22 58.79 12.21C58.83 12.2 58.86 12.19 58.9 12.19C58.94 12.18 58.98 12.18 59.02 12.19C59.06 12.19 59.09 12.2 59.13 12.22C59.17 12.23 59.2 12.25 59.23 12.27C59.27 12.29 59.3 12.31 59.33 12.33C59.37 12.37 59.4 12.4 59.44 12.44C59.47 12.47 59.5 12.51 59.53 12.56C59.56 12.6 59.58 12.65 59.6 12.7C59.61 12.74 59.63 12.79 59.63 12.84C59.64 12.89 59.65 12.94 59.65 12.99C59.65 13.05 59.64 13.1 59.63 13.15C59.62 13.2 59.6 13.24 59.58 13.29C59.56 13.34 59.54 13.38 59.51 13.43L59.61 13.5L60.01 12.91C59.87 12.65 59.68 12.43 59.45 12.25C59.4 12.21 59.35 12.17 59.29 12.14C59.24 12.1 59.18 12.08 59.12 12.06C59.06 12.04 59 12.03 58.93 12.02C58.87 12.01 58.8 12.01 58.74 12.02C58.68 12.02 58.61 12.03 58.55 12.05C58.49 12.07 58.43 12.1 58.38 12.13C58.32 12.16 58.27 12.19 58.22 12.23C58.17 12.28 58.12 12.32 58.08 12.37C57.42 13.28 59.03 14.07 58.52 14.78C58.46 14.85 58.39 14.91 58.31 14.95C58.24 14.98 58.18 15 58.11 15.01C58.04 15.03 57.97 15.03 57.91 15.02C57.84 15.01 57.77 14.99 57.71 14.96C57.65 14.93 57.59 14.89 57.54 14.84C57.49 14.8 57.45 14.76 57.4 14.71C57.36 14.66 57.33 14.61 57.3 14.56C57.27 14.5 57.24 14.44 57.22 14.38C57.2 14.33 57.19 14.26 57.18 14.2C57.17 14.14 57.17 14.08 57.17 14.01C57.17 13.95 57.18 13.89 57.2 13.83C57.21 13.77 57.23 13.71 57.26 13.65C57.29 13.59 57.32 13.54 57.35 13.49L57.25 13.41L56.73 14.17C56.9 14.47 57.12 14.72 57.4 14.91C57.46 14.96 57.51 15 57.57 15.03C57.64 15.07 57.7 15.09 57.77 15.12C57.83 15.14 57.9 15.15 57.97 15.16C58.04 15.17 58.11 15.17 58.18 15.16C58.25 15.16 58.32 15.14 58.38 15.13C58.45 15.11 58.51 15.08 58.58 15.05C58.64 15.02 58.7 14.98 58.75 14.94C58.81 14.89 58.86 14.84 58.9 14.79C59.62 13.8 58.02 13.04 58.51 12.4Z" fill="#1D1D1B" fill-opacity="1.000000" fill-rule="nonzero"/>
		<path id="path" d="M46.58 6.62L47 6.72L46.29 9.67L45.88 9.57L45.86 9.68L47.2 9.99L47.22 9.88L46.8 9.78L47.49 6.83L47.92 6.93L47.94 6.83L46.6 6.51L46.58 6.62Z" fill="#1D1D1B" fill-opacity="1.000000" fill-rule="nonzero"/>
		<path id="path" d="M38.45 6.78L38.59 6.78C38.59 6.36 38.79 5.87 39.26 5.89L39.69 5.89L39.69 8.89L39.2 8.89L39.2 9L40.72 9L40.72 8.91L40.21 8.91L40.21 5.91L40.61 5.91C41.07 5.91 41.24 6.39 41.26 6.82L41.39 6.82L41.39 5.77L38.45 5.74L38.45 6.78Z" fill="#1D1D1B" fill-opacity="1.000000" fill-rule="nonzero"/>
		<path id="path" d="M52.45 9.45L52.58 9.45C52.78 9.07 53.15 8.71 53.57 8.92L53.93 9.1L52.62 11.85L52.16 11.63L52.16 11.73L53.52 12.4L53.52 12.3L53.07 12.07L54.39 9.37L54.74 9.54C55.16 9.74 55.11 10.25 54.93 10.65L55.06 10.65L55.52 9.71L52.91 8.47L52.45 9.45Z" fill="#1D1D1B" fill-opacity="1.000000" fill-rule="nonzero"/>
		<path id="path" d="M68.99 25.36L68.99 25.48C69.38 25.33 69.89 25.31 70.08 25.74L70.23 26.1L67.52 27.28L67.32 26.82L67.22 26.82L67.82 28.22L67.92 28.22L67.72 27.76L70.49 26.58L70.64 26.94C70.82 27.38 70.45 27.73 70.06 27.91L70.06 28.04L71.02 27.63L69.89 24.96L68.99 25.36Z" fill="#1D1D1B" fill-opacity="1.000000" fill-rule="nonzero"/>
		<path id="path" d="M43.86 6.03L43.85 6.15L44.31 6.2L43.48 7.45L42.92 6.03L43.39 6.1L43.4 5.99L41.96 5.81L41.95 5.92L42.32 5.97L42.99 7.56L42.82 9.09L42.4 9.02L42.37 9.15L43.75 9.3L43.75 9.18L43.34 9.14L43.51 7.61L44.45 6.22L44.8 6.26L44.81 6.15L43.86 6.03Z" fill="#1D1D1B" fill-opacity="1.000000" fill-rule="nonzero"/>
		<path id="path" d="M61.76 18.49L64.03 16.5L63.74 16.12L63.83 16.04L64.76 17.1L64.67 17.17L64.38 16.85L62.12 18.85L62.4 19.17L62.3 19.26L61.37 18.2L61.46 18.11L61.76 18.49ZM65.08 17.52L65.65 18.16L65.55 18.24L65.34 18L63.84 18L63.33 20.28L63.48 20.46L63.38 20.55L62.59 19.64L62.69 19.55L62.87 19.76L63.33 17.87L65.24 17.87L64.99 17.58L65.08 17.52Z" fill="#1D1D1B" fill-opacity="1.000000" fill-rule="nonzero"/>
		<path id="path" d="M41.88 69.81L42.3 69.77L42.61 72.76L42.19 72.81L42.2 72.92L43.55 72.78L43.54 72.67L43.12 72.71L42.82 69.72L43.24 69.68L43.23 69.56L41.86 69.69L41.88 69.81Z" fill="#1D1D1B" fill-opacity="1.000000" fill-rule="nonzero"/>
		<path id="path" d="M62.13 59.82L62.4 59.5L64.68 61.47L64.4 61.79L64.48 61.86L65.38 60.83L65.29 60.75L65.02 61.07L62.74 59.11L63.01 58.79L62.93 58.72L62.04 59.76L62.13 59.82Z" fill="#1D1D1B" fill-opacity="1.000000" fill-rule="nonzero"/>
		<path id="path" d="M68.8 47.72L68.91 47.31L71.83 48.05L71.71 48.46L71.83 48.5L72.16 47.17L72.05 47.15L71.95 47.56L69.04 46.81L69.15 46.39L69.04 46.37L68.69 47.69L68.8 47.72Z" fill="#1D1D1B" fill-opacity="1.000000" fill-rule="nonzero"/>
		<path id="path" d="M48.78 68.43L49.24 68.28L49.87 70.39L49.86 70.39L47.67 68.64L46.68 68.94L46.71 69.05L47.11 68.92L47.96 71.8L47.57 71.93L47.61 72.04L48.61 71.73L48.57 71.63L48.1 71.76L47.27 68.99L47.28 68.99L50.21 71.31L50.28 71.27L49.38 68.24L49.78 68.13L49.74 68.02L48.75 68.32L48.78 68.43Z" fill="#1D1D1B" fill-opacity="1.000000" fill-rule="nonzero"/>
		<path id="path" d="M20.33 63.11L20.64 63.37L19.75 64.46L18.67 63.55L19.56 62.48L19.87 62.74L19.95 62.65L18.91 61.79L18.85 61.88L19.17 62.15L17.25 64.47L16.92 64.2L16.85 64.29L17.89 65.14L17.96 65.06L17.64 64.79L18.6 63.64L19.69 64.53L18.73 65.69L18.41 65.43L18.35 65.51L19.38 66.37L19.45 66.28L19.13 66.02L21.04 63.7L21.38 63.98L21.44 63.89L20.41 63.02L20.33 63.11Z" fill="#1D1D1B" fill-opacity="1.000000" fill-rule="nonzero"/>
		<path id="path" d="M9.83 46.33L9.92 46.73L8.55 47.02L8.25 45.66L9.62 45.35L9.7 45.76L9.82 45.73L9.52 44.42L9.41 44.44L9.51 44.85L6.57 45.5L6.48 45.09L6.37 45.11L6.65 46.43L6.77 46.4L6.68 46.01L8.14 45.68L8.44 47.05L6.99 47.37L6.9 46.97L6.79 47L7.08 48.31L7.19 48.29L7.1 47.88L10.03 47.23L10.13 47.64L10.24 47.62L9.94 46.3L9.83 46.33Z" fill="#1D1D1B" fill-opacity="1.000000" fill-rule="nonzero"/>
		<path id="path" d="M37.05 69.66L36.96 69.66L35.64 72.73L35.25 72.73L35.25 72.84L36.26 72.93L36.26 72.82L35.79 72.82L36.2 71.83L37.04 71.9L37.26 72.94L36.79 72.94L36.79 73.05L38.24 73.18L38.24 73.07L37.82 73.07L37.05 69.66ZM36.26 71.62L36.74 70.5L37 71.74L36.26 71.62Z" fill="#1D1D1B" fill-opacity="1.000000" fill-rule="nonzero"/>
		<path id="path" d="M22.89 64.81L22.81 64.81L20.18 66.88L19.85 66.62L19.85 66.72L20.69 67.28L20.69 67.18L20.31 66.96L21.14 66.3L21.85 66.75L21.55 67.77L21.15 67.51L21.15 67.61L22.39 68.42L22.33 68.21L21.98 67.98L22.89 64.81ZM21.26 66.15L22.22 65.4L21.88 66.57L21.26 66.15Z" fill="#1D1D1B" fill-opacity="1.000000" fill-rule="nonzero"/>
		<path id="path" d="M54.57 65.73L54.5 65.73L55.15 69.01L54.81 69.2L54.81 69.3L55.69 68.8L55.69 68.7L55.28 68.94L55.07 67.9L55.8 67.49L56.57 68.22L56.16 68.45L56.16 68.55L57.4 67.83L57.4 67.73L57.04 67.95L54.57 65.73ZM55.02 67.78L54.79 66.54L55.67 67.37L55.02 67.78Z" fill="#1D1D1B" fill-opacity="1.000000" fill-rule="nonzero"/>
		<path id="path" d="M13.87 55.87L14.13 56.29L12.27 57.43L12.26 57.43L13.39 54.85L12.84 53.97L12.74 54.03L12.97 54.38L10.4 55.96L10.19 55.6L10.09 55.67L10.64 56.56L10.73 56.5L10.47 56.08L12.94 54.55L12.95 54.56L11.45 57.99L11.53 58.05L14.21 56.4L14.43 56.76L14.52 56.7L13.97 55.8L13.87 55.87Z" fill="#1D1D1B" fill-opacity="1.000000" fill-rule="nonzero"/>
		<path id="path" d="M68.56 55.99L68.22 56.58L66.98 55.8L67.1 55.59C67.36 55.13 67.51 55.2 67.99 55.47L68.06 55.36L66.72 54.56L66.64 54.67C67.06 54.92 67.21 55.05 66.95 55.51L66.83 55.72L65.59 55.01L65.7 54.82C66.22 53.93 66.37 53.83 67.14 54.1L67.14 54.01L66.27 53.53L65.03 55.78L65.13 55.78L65.34 55.41L67.97 57.04L67.76 57.42L67.86 57.42L69.22 55.06L68.28 54.56L68.22 54.56C68.73 55.02 68.91 55.39 68.56 55.99Z" fill="#1D1D1B" fill-opacity="1.000000" fill-rule="nonzero"/>
		<path id="path" d="M17.08 60.76C17.11 60.74 17.14 60.72 17.18 60.7C17.21 60.68 17.24 60.66 17.28 60.65C17.31 60.64 17.35 60.63 17.39 60.63C17.42 60.62 17.46 60.62 17.5 60.62C17.54 60.63 17.57 60.63 17.61 60.64C17.65 60.65 17.68 60.67 17.72 60.68C17.75 60.7 17.78 60.72 17.81 60.75C17.84 60.77 17.87 60.8 17.89 60.83C17.93 60.86 17.96 60.9 17.99 60.95C18.01 60.99 18.04 61.03 18.06 61.08C18.07 61.13 18.09 61.18 18.1 61.23C18.11 61.28 18.11 61.33 18.11 61.38C18.11 61.43 18.11 61.48 18.1 61.53C18.09 61.58 18.07 61.63 18.06 61.68C18.04 61.72 18.01 61.77 17.99 61.81C17.96 61.85 17.93 61.89 17.89 61.93L17.98 62.02L18.46 61.5C18.36 61.22 18.21 60.98 18.01 60.76C17.97 60.72 17.92 60.68 17.87 60.64C17.82 60.61 17.77 60.58 17.71 60.55C17.65 60.53 17.59 60.51 17.53 60.5C17.47 60.49 17.41 60.48 17.34 60.48C17.28 60.48 17.22 60.49 17.16 60.5C17.1 60.51 17.04 60.53 16.98 60.55C16.92 60.58 16.87 60.61 16.82 60.64C16.77 60.68 16.72 60.72 16.67 60.76C15.88 61.56 17.34 62.58 16.67 63.24C16.64 63.28 16.6 63.3 16.56 63.33C16.53 63.35 16.48 63.37 16.44 63.38C16.4 63.4 16.35 63.41 16.31 63.41C16.26 63.42 16.22 63.42 16.17 63.42C16.13 63.41 16.08 63.4 16.04 63.39C16 63.38 15.95 63.36 15.91 63.34C15.87 63.31 15.84 63.29 15.8 63.26C15.77 63.23 15.74 63.19 15.71 63.16C15.67 63.11 15.63 63.06 15.59 63.01C15.56 62.96 15.53 62.9 15.51 62.85C15.49 62.79 15.47 62.73 15.46 62.67C15.45 62.61 15.44 62.54 15.44 62.48C15.44 62.42 15.45 62.36 15.46 62.3C15.47 62.24 15.49 62.18 15.51 62.12C15.53 62.06 15.56 62.01 15.59 61.95C15.63 61.9 15.67 61.85 15.71 61.81L15.62 61.72L14.99 62.39C15.11 62.71 15.29 62.99 15.53 63.22C15.58 63.27 15.63 63.32 15.68 63.36C15.74 63.41 15.8 63.44 15.86 63.47C15.92 63.51 15.99 63.53 16.05 63.55C16.12 63.57 16.19 63.58 16.26 63.58C16.32 63.59 16.39 63.59 16.46 63.58C16.53 63.57 16.6 63.56 16.66 63.53C16.73 63.51 16.79 63.48 16.85 63.45C16.91 63.42 16.97 63.38 17.02 63.33C17.96 62.38 16.51 61.38 17.08 60.76Z" fill="#1D1D1B" fill-opacity="1.000000" fill-rule="nonzero"/>
		<path id="path" d="M26 66.74L26.37 66.93L25.74 68.18L24.48 67.55L25.12 66.3L25.48 66.48L25.53 66.38L24.33 65.77L24.28 65.87L24.66 66.06L23.3 68.75L22.93 68.55L22.86 68.65L24.07 69.26L24.12 69.16L23.76 68.99L24.44 67.65L25.69 68.28L25.01 69.62L24.65 69.43L24.6 69.53L25.8 70.14L25.85 70.04L25.47 69.84L26.83 67.16L27.2 67.35L27.25 67.25L26.05 66.64L26 66.74Z" fill="#1D1D1B" fill-opacity="1.000000" fill-rule="nonzero"/>
		<path id="path" d="M51.77 67.31L52.14 67.15L52.7 68.44L51.41 68.99L50.85 67.71L51.23 67.55L51.19 67.44L49.95 67.97L49.99 68.07L50.38 67.91L51.57 70.67L51.18 70.83L51.23 70.95L52.47 70.41L52.42 70.31L52.05 70.47L51.45 69.1L52.74 68.54L53.33 69.92L52.96 70.08L53 70.18L54.24 69.64L54.2 69.54L53.81 69.72L52.62 66.95L53.01 66.78L52.96 66.68L51.72 67.21L51.77 67.31Z" fill="#1D1D1B" fill-opacity="1.000000" fill-rule="nonzero"/>
		<path id="path" d="M68.56 49.94C68.49 49.91 68.43 49.87 68.38 49.81C68.32 49.76 68.28 49.7 68.25 49.62C68.22 49.55 68.21 49.48 68.21 49.4C68.22 49.32 68.23 49.25 68.27 49.18C68.4 48.78 68.73 48.61 69.25 48.67L69.25 48.56L68.6 48.36C68.4 48.57 68.25 48.82 68.14 49.09C68.1 49.18 68.08 49.27 68.07 49.37C68.06 49.46 68.06 49.55 68.08 49.65C68.1 49.74 68.13 49.83 68.18 49.91C68.22 49.99 68.28 50.07 68.35 50.13C68.44 50.22 68.54 50.29 68.66 50.33C69.72 50.69 69.99 48.93 70.81 49.21C70.9 49.24 70.97 49.29 71.04 49.35C71.1 49.42 71.15 49.49 71.19 49.58C71.22 49.66 71.24 49.75 71.24 49.85C71.23 49.94 71.21 50.03 71.17 50.11C71.12 50.23 71.05 50.33 70.97 50.43C70.88 50.52 70.78 50.59 70.66 50.64C70.55 50.7 70.43 50.73 70.3 50.73C70.17 50.74 70.05 50.72 69.93 50.68L69.93 50.79L70.81 51.05C71.04 50.81 71.21 50.52 71.32 50.2C71.37 50.07 71.39 49.93 71.38 49.79C71.38 49.65 71.34 49.52 71.29 49.39C71.23 49.27 71.15 49.16 71.05 49.06C70.94 48.97 70.83 48.89 70.7 48.85C69.57 48.46 69.33 50.2 68.56 49.94Z" fill="#1D1D1B" fill-opacity="1.000000" fill-rule="nonzero"/>
		<path id="path" d="M70.14 46.28L70.14 46.14C69.73 46.06 69.28 45.8 69.37 45.34L69.43 44.95L72.36 45.47L72.27 45.96L72.38 45.96L72.64 44.47L72.53 44.47L72.45 44.96L69.52 44.44L69.58 44.06C69.66 43.6 70.15 43.51 70.57 43.56L70.7 43.4L69.68 43.23L69.18 46.06L70.14 46.28Z" fill="#1D1D1B" fill-opacity="1.000000" fill-rule="nonzero"/>
		<path id="path" d="M70.88 40.21L70.88 40.08C70.46 40.08 69.99 39.9 69.98 39.45L69.98 39.06L72.95 39L72.95 39.49L73.07 39.49L73.07 37.98L72.95 37.98L72.95 38.44L69.98 38.5L69.98 38.12C69.98 37.66 70.44 37.47 70.86 37.44L70.86 37.3L69.83 37.3L69.83 40.18L70.88 40.21Z" fill="#1D1D1B" fill-opacity="1.000000" fill-rule="nonzero"/>
		<path id="path" d="M58.75 63.01L59.14 62.71L60.44 64.37C60.78 64.79 60.92 65.13 60.26 65.61C59.59 66.1 59.41 65.92 59.01 65.46L57.69 63.78L58.04 63.51L57.96 63.42L56.88 64.27L56.96 64.36L57.28 64.1L58.64 65.84C59.01 66.31 59.34 66.48 60.19 65.84C61.05 65.19 60.92 64.79 60.54 64.31L59.21 62.61L59.51 62.38L59.54 62.31L58.74 62.93L58.75 63.01Z" fill="#1D1D1B" fill-opacity="1.000000" fill-rule="nonzero"/>
		<path id="path" d="M61.16 60.81L61.51 60.47L63.03 62.03L63.03 62.04L60.28 61.52L59.54 62.24L59.61 62.33L59.91 62.03L62.02 64.19L61.72 64.47L61.79 64.55L62.54 63.81L62.46 63.74L62.12 64.09L60.08 62.02L60.08 62L63.76 62.7L63.8 62.62L61.61 60.38L61.9 60.08L61.82 60.01L61.07 60.74L61.16 60.81Z" fill="#1D1D1B" fill-opacity="1.000000" fill-rule="nonzero"/>
		<path id="path" d="M69.85 37.06L69.8 36.63L72.81 36.33L72.84 36.75L72.95 36.74L72.82 35.39L72.71 35.4L72.74 35.82L69.75 36.12L69.72 35.7L69.61 35.71L69.74 37.06L69.85 37.06Z" fill="#1D1D1B" fill-opacity="1.000000" fill-rule="nonzero"/>
		<path id="path" d="M64.45 56.85L64.72 56.47L66.18 58.52L66.17 58.52L63.8 57.74L64.07 57.37L63.99 57.3L63.18 58.41L63.28 58.48L63.49 58.17L66.68 59.18L66.74 59.1L64.82 56.35L65 56.08L64.92 56.01L64.36 56.78L64.45 56.85Z" fill="#1D1D1B" fill-opacity="1.000000" fill-rule="nonzero"/>
		<path id="path" d="M72.87 41.67L72.87 42.35L71.4 42.24L71.4 41.99C71.4 41.47 71.59 41.44 72.16 41.48L72.16 41.34L70.62 41.23L70.62 41.37C71.11 41.37 71.3 41.45 71.27 41.98L71.27 42.22L69.83 42.16L69.83 41.95C69.9 40.92 69.99 40.71 70.81 40.71L70.81 40.59L69.82 40.59L69.63 43.17L69.74 43.17L69.74 42.74L72.74 42.97L72.74 43.39L72.86 43.39L73.05 40.67L71.95 40.55L71.95 40.67C72.59 40.72 72.93 40.92 72.87 41.67Z" fill="#1D1D1B" fill-opacity="1.000000" fill-rule="nonzero"/>
		<path id="path" d="M9.44 54.05L9.15 53.43L10.47 52.8L10.57 53.03C10.8 53.5 10.67 53.6 10.16 53.84L10.16 53.97L11.61 53.32L11.61 53.2C11.17 53.41 10.98 53.46 10.76 52.99L10.65 52.76L11.89 52.16L11.99 52.36C12.43 53.29 12.43 53.47 11.78 53.94L11.78 54.05L12.66 53.61L11.54 51.28L11.44 51.28L11.63 51.66L8.91 52.9L8.69 52.59L8.59 52.59L9.77 55.07L10.78 54.64L10.78 54.53C10.15 54.74 9.74 54.67 9.44 54.05Z" fill="#1D1D1B" fill-opacity="1.000000" fill-rule="nonzero"/>
		<path id="path" d="M69.85 51.74C69.18 51.49 69.02 51.64 68.61 52.22C68.74 51.8 68.74 51.43 68.25 51.23C67.77 51.03 67.37 51.23 67.15 51.81L66.62 53.05L66.72 53.05L66.89 52.67L69.64 53.91L69.47 54.29L69.57 54.29L70.11 53.05L70.02 53.05L69.85 53.42L68.46 52.81L68.58 52.55C68.81 52.02 69.02 52.01 69.58 52.22C70.14 52.43 70.39 52.49 70.61 51.98L70.75 51.69L70.65 51.69L70.65 51.79C70.54 51.97 70.3 51.91 69.85 51.74ZM68.38 52.74L67.14 52.19L67.24 51.98C67.42 51.56 67.71 51.52 68.09 51.69C68.48 51.85 68.66 52.08 68.5 52.44L68.38 52.74Z" fill="#1D1D1B" fill-opacity="1.000000" fill-rule="nonzero"/>
		<path id="path" d="M29.19 70.54C29.4 69.85 29.19 69.71 28.63 69.4C29.05 69.5 29.42 69.46 29.6 68.97C29.77 68.49 29.49 68.11 28.94 67.91L27.7 67.45L27.7 67.55L28.1 67.7L27.07 70.52L26.67 70.38L26.67 70.49L27.91 70.95L27.91 70.85L27.53 70.69L28.05 69.26L28.32 69.36C28.87 69.56 28.89 69.78 28.72 70.34C28.54 70.9 28.51 71.17 29.03 71.36L29.34 71.47L29.34 71.36L29.23 71.36C29 71.23 29.05 71 29.19 70.54ZM28.1 69.12L28.56 67.88L28.78 67.97C29.21 68.13 29.28 68.42 29.13 68.81C28.98 69.21 28.77 69.41 28.39 69.27L28.1 69.12Z" fill="#1D1D1B" fill-opacity="1.000000" fill-rule="nonzero"/>
		<path id="path" d="M8.69 42.56C8.76 42.55 8.84 42.56 8.91 42.58C8.98 42.61 9.05 42.65 9.11 42.7C9.16 42.75 9.21 42.81 9.24 42.88C9.27 42.95 9.28 43.03 9.28 43.1C9.28 43.53 9.12 43.81 8.63 43.98L8.63 44.11L9.32 44C9.41 43.72 9.44 43.43 9.41 43.14C9.4 43.01 9.38 42.89 9.32 42.77C9.27 42.65 9.19 42.55 9.1 42.47C9 42.38 8.89 42.32 8.77 42.28C8.64 42.24 8.52 42.22 8.39 42.24C7.29 42.37 7.81 44.07 6.94 44.18C6.51 44.18 6.27 43.88 6.23 43.51C6.22 43.39 6.24 43.26 6.27 43.14C6.31 43.02 6.37 42.91 6.45 42.81C6.53 42.72 6.62 42.64 6.73 42.57C6.84 42.51 6.96 42.47 7.09 42.46L7.09 42.33L6.21 42.48C6.1 42.81 6.07 43.14 6.12 43.48C6.13 43.62 6.16 43.75 6.22 43.88C6.28 44.01 6.36 44.12 6.47 44.21C6.57 44.31 6.69 44.38 6.83 44.42C6.96 44.47 7.1 44.49 7.24 44.48C8.43 44.33 7.89 42.66 8.69 42.56Z" fill="#1D1D1B" fill-opacity="1.000000" fill-rule="nonzero"/>
		<path id="path" d="M45.04 69.4L45.46 69.31L46.07 72.25L45.66 72.34L45.68 72.45L47.01 72.17L46.99 72.06L46.58 72.15L45.96 69.2L46.38 69.11L46.35 69.01L45.01 69.28L45.04 69.4Z" fill="#1D1D1B" fill-opacity="1.000000" fill-rule="nonzero"/>
		<path id="path" d="M30.8 68.65L31.21 68.76L30.42 71.67L29.99 71.55L29.97 71.65L31.28 72.01L31.32 71.91L30.9 71.79L31.69 68.9L32.12 69.01L32.14 68.9L30.83 68.54L30.8 68.65Z" fill="#1D1D1B" fill-opacity="1.000000" fill-rule="nonzero"/>
		<path id="path" d="M13.72 57.39L13.81 57.5C14.16 57.25 14.64 57.11 14.93 57.5L15.16 57.81L12.78 59.59L12.48 59.19L12.4 59.26L13.31 60.5L13.4 60.44L13.1 60.04L15.47 58.23L15.71 58.54C15.99 58.92 15.71 59.34 15.4 59.61L15.48 59.72L16.3 59.09L14.55 56.81L13.72 57.39Z" fill="#1D1D1B" fill-opacity="1.000000" fill-rule="nonzero"/>
		<path id="path" d="M8.28 35.6L8.28 35.74C8.7 35.74 9.16 36 9.12 36.46L9.12 36.84L6.16 36.61L6.16 36.11L6.05 36.11L5.92 37.61L6.03 37.61L6.03 37.11L9 37.35L9 37.73C9 38.19 8.48 38.33 8.06 38.32L8.06 38.44L9.08 38.52L9.31 35.65L8.28 35.6Z" fill="#1D1D1B" fill-opacity="1.000000" fill-rule="nonzero"/>
		<path id="path" d="M7.6 49.6L10.41 48.61L10.28 48.21L10.39 48.21L10.85 49.53L10.73 49.53L10.6 49.13L7.77 50.12L7.91 50.52L7.8 50.52L7.34 49.21L7.45 49.21L7.6 49.6ZM11.02 49.94L11.3 50.74L11.19 50.74L11.09 50.46L9.71 49.9L8.39 51.81L8.46 52.03L8.35 52.03L7.96 50.9L8.07 50.9L8.17 51.18L9.28 49.6L11.03 50.32L10.91 49.97L11.02 49.94Z" fill="#1D1D1B" fill-opacity="1.000000" fill-rule="nonzero"/>
		<path id="path" d="M9.18 40.31C9.18 40.11 9.13 39.91 9.03 39.73C8.94 39.54 8.82 39.38 8.66 39.25C8.5 39.12 8.32 39.02 8.13 38.97C7.93 38.91 7.73 38.9 7.52 38.92C7.32 38.91 7.13 38.94 6.94 39.01C6.75 39.08 6.58 39.18 6.43 39.32C6.4 39.36 6.36 39.39 6.33 39.43C6.3 39.47 6.27 39.51 6.24 39.55C6.21 39.59 6.19 39.64 6.16 39.68C6.14 39.72 6.12 39.77 6.1 39.81C6.08 39.86 6.07 39.91 6.05 39.95C6.04 40 6.03 40.05 6.02 40.1C6.01 40.15 6 40.2 6 40.25C5.99 40.3 5.99 40.35 5.99 40.4C6 40.45 6 40.5 6.01 40.55C6.01 40.6 6.02 40.65 6.03 40.69C6.04 40.74 6.06 40.79 6.07 40.84C6.09 40.88 6.11 40.93 6.13 40.98C6.15 41.02 6.18 41.06 6.2 41.11C6.23 41.15 6.26 41.19 6.29 41.23C6.32 41.27 6.35 41.31 6.38 41.34C6.42 41.38 6.45 41.41 6.49 41.45C6.64 41.58 6.81 41.68 7.01 41.74C7.2 41.79 7.4 41.81 7.6 41.79C7.8 41.81 8 41.78 8.2 41.72C8.39 41.65 8.57 41.54 8.72 41.4C8.87 41.26 8.98 41.1 9.07 40.91C9.15 40.72 9.19 40.52 9.18 40.31ZM6.7 41.14C6.6 41.14 6.51 41.11 6.42 41.06C6.33 41 6.26 40.93 6.21 40.85C6.13 40.7 6.08 40.55 6.07 40.39C6.05 40.29 6.06 40.19 6.08 40.09C6.1 39.99 6.15 39.9 6.21 39.82C6.34 39.69 6.51 39.61 6.69 39.58C6.94 39.54 7.19 39.52 7.45 39.52C7.78 39.48 8.12 39.48 8.45 39.52C8.54 39.53 8.61 39.56 8.69 39.61C8.76 39.66 8.82 39.72 8.86 39.79C8.94 39.94 8.99 40.1 8.99 40.26C8.99 40.43 8.96 40.58 8.89 40.72C8.81 40.87 8.69 40.97 8.54 41.02C8.25 41.1 7.95 41.14 7.65 41.13C7.32 41.16 6.99 41.17 6.67 41.14L6.7 41.14Z" fill="#1D1D1B" fill-opacity="1.000000" fill-rule="nonzero"/>
		<path id="path" d="M32.49 72.16L33.02 69.25L32.61 69.17L32.61 69.05L33.98 69.3C34.25 69.34 34.52 69.43 34.76 69.58C34.87 69.66 34.96 69.76 35.04 69.87C35.12 69.98 35.18 70.11 35.22 70.24C35.32 70.54 35.34 70.85 35.28 71.17C35.22 71.49 35.09 71.78 34.87 72.02C34.69 72.24 34.47 72.38 34.2 72.46C33.93 72.51 33.66 72.51 33.39 72.46L32.04 72.21L32.04 72.09L32.49 72.16ZM33.55 69.33L33.03 72.26L33.43 72.33C33.6 72.36 33.77 72.36 33.94 72.33C34.09 72.31 34.21 72.25 34.31 72.14C34.43 72 34.52 71.84 34.57 71.67C34.65 71.41 34.71 71.15 34.76 70.88C34.82 70.58 34.82 70.28 34.76 69.98C34.74 69.89 34.7 69.81 34.66 69.74C34.61 69.67 34.54 69.61 34.47 69.56C34.3 69.48 34.12 69.42 33.94 69.4L33.55 69.33Z" fill="#1D1D1B" fill-opacity="1.000000" fill-rule="nonzero"/>
		<path id="path" d="M41.09 70.69L40.93 70.69C40.91 70.57 40.87 70.45 40.82 70.34C40.76 70.17 40.66 70.03 40.51 69.93C40.36 69.82 40.2 69.77 40.02 69.78C39.92 69.77 39.82 69.79 39.73 69.82C39.64 69.85 39.55 69.9 39.48 69.97C39.37 70.09 39.3 70.24 39.28 70.41C39.27 70.67 39.27 70.92 39.28 71.17C39.28 71.56 39.3 71.95 39.36 72.33C39.39 72.5 39.46 72.65 39.59 72.76C39.72 72.86 39.87 72.9 40.03 72.89C40.15 72.89 40.27 72.86 40.37 72.79C40.42 72.77 40.46 72.73 40.5 72.68C40.53 72.64 40.55 72.59 40.56 72.53C40.58 72.36 40.58 72.19 40.56 72.03L40.56 71.93L40.11 71.93L40.11 71.8L41.55 71.8L41.55 71.93L41.18 71.93C41.2 72.1 41.18 72.26 41.12 72.42C41.05 72.58 40.95 72.71 40.82 72.82C40.59 73 40.33 73.09 40.04 73.1C39.94 73.11 39.85 73.1 39.75 73.08C39.66 73.06 39.57 73.02 39.48 72.98C39.39 72.94 39.31 72.89 39.24 72.83C39.16 72.77 39.09 72.7 39.04 72.62C38.9 72.46 38.8 72.28 38.72 72.07C38.65 71.87 38.61 71.67 38.61 71.45C38.6 71.23 38.62 71.01 38.69 70.8C38.76 70.58 38.86 70.39 39 70.21C39.11 70.05 39.26 69.92 39.44 69.83C39.62 69.74 39.8 69.69 40 69.69C40.14 69.7 40.28 69.72 40.41 69.77C40.54 69.82 40.66 69.89 40.77 69.98C40.85 69.98 40.9 69.89 40.9 69.89L41.02 69.89L41.09 70.69Z" fill="#1D1D1B" fill-opacity="1.000000" fill-rule="nonzero"/>
	</g>
</svg>
